<?xml version="1.0" standalone="no"?>
<!DOCTYPE svg PUBLIC "-//W3C//DTD SVG 20010904//EN"
 "http://www.w3.org/TR/2001/REC-SVG-20010904/DTD/svg10.dtd">
<svg version="1.0" xmlns="http://www.w3.org/2000/svg"
 width="200.000000pt" height="200.000000pt" viewBox="0 0 200.000000 200.000000"
 preserveAspectRatio="xMidYMid meet">
<metadata>
Created by potrace 1.14, written by Peter Selinger 2001-2017
</metadata>
<g transform="translate(0.000000,200.000000) scale(0.100000,-0.100000)"
fill="#000000" stroke="none">
<path d="M915 1842 c-48 -5 -145 -31 -205 -54 -251 -99 -442 -335 -486 -604
-11 -67 -10 -206 2 -264 25 -118 80 -245 140 -325 l23 -31 -21 -1 c-12 -1 -24
-7 -28 -14 -6 -8 -14 -7 -31 3 -30 19 -98 17 -125 -2 -18 -14 -20 -25 -20
-125 1 -60 4 -115 8 -121 13 -20 88 -39 107 -27 14 9 20 7 29 -8 11 -17 58
-35 122 -45 14 -3 32 -7 41 -10 9 -2 24 5 34 16 21 23 45 26 45 7 0 -25 34
-45 85 -50 28 -3 57 -8 65 -11 8 -3 76 -9 150 -11 74 -3 162 -7 195 -9 33 -1
69 2 80 7 11 6 43 9 71 8 43 -2 55 2 67 19 13 19 15 19 28 4 13 -16 19 -16
134 2 57 9 140 25 170 34 17 5 46 12 65 16 46 8 50 9 83 22 16 7 33 12 38 12
5 0 18 15 30 33 17 28 19 43 14 115 -2 46 -9 91 -15 102 -14 26 -64 39 -136
37 l-61 -3 37 56 c92 136 133 267 135 440 4 385 -297 729 -680 776 -11 1 -20
3 -20 4 0 4 -139 5 -170 2z m229 -53 c249 -45 471 -238 562 -491 74 -206 39
-471 -87 -654 -31 -45 -33 -46 -41 -25 -9 25 6 136 21 154 14 17 48 125 56
177 35 220 -32 420 -194 580 -122 121 -254 179 -424 186 -333 14 -614 -205
-681 -530 -12 -56 -13 -204 -3 -251 15 -63 22 -85 43 -134 19 -41 24 -71 24
-130 l-1 -76 -25 30 c-38 47 -100 183 -119 262 -18 77 -24 207 -12 284 48 318
311 579 627 624 25 4 46 8 47 9 6 6 151 -5 207 -15z m-377 -1440 c-14 -23 -26
-7 -19 28 5 24 6 25 18 8 10 -13 10 -21 1 -36z m297 10 c-1 -47 -19 -43 -21 4
0 25 3 37 10 34 7 -2 12 -19 11 -38z"/>
</g>
</svg>
